<svg width="1163" height="307" viewBox="0 0 1163 307" fill="none" xmlns="http://www.w3.org/2000/svg">
<path fill-rule="evenodd" clip-rule="evenodd" d="M581.828 35.3491C493.726 35.3491 472.726 23.6479 428.226 15.8604C388.226 8.86038 312.828 2.34909 284.828 2.34909C260.161 0.849094 185.339 0.274307 147.226 2.34914C82.7257 5.86038 5.22608 14.8604 1.22568 18.8604C0.225853 19.8599 2.7262 112.86 5.22588 116.36C14.7262 126.86 58.1033 130.71 60.7262 138.36C66.7262 155.86 85.2262 220.86 102.827 240.349C120.429 259.838 171.226 288.86 230.226 299.86C258.226 305.081 331.226 309.36 371.726 303.36C412.226 297.36 444.226 278.86 459.726 262.86C475.226 246.86 496.726 201.86 514.726 148.86C532.726 95.8603 530.726 97.3603 537.827 89.3491C542.726 87.8603 568.331 87.3603 583.331 87.3603L581.828 35.3491ZM241.226 30.8604C122.426 30.8604 90.3799 41.3603 88.7262 87.3603C93.7259 267.36 185.226 274.86 305.726 283.86C360.668 286.207 417.226 276.682 448.726 240.349C480.226 204.017 492.226 144.36 492.226 97.3603C492.226 50.3603 394.226 30.8604 241.226 30.8604Z" fill="#BDBDBD"/>
<path fill-rule="evenodd" clip-rule="evenodd" d="M581.229 35.3491C669.331 35.3491 690.331 23.6479 734.831 15.8604C774.831 8.86038 850.229 2.34909 878.229 2.34909C902.895 0.849094 977.717 0.274307 1015.83 2.34914C1080.33 5.86038 1157.83 14.8604 1161.83 18.8604C1162.83 19.8599 1160.33 112.86 1157.83 116.36C1148.33 126.86 1104.95 130.71 1102.33 138.36C1096.33 155.86 1077.83 220.86 1060.23 240.349C1042.63 259.838 991.83 288.86 932.83 299.86C904.83 305.081 831.83 309.36 791.33 303.36C750.83 297.36 718.83 278.86 703.33 262.86C687.83 246.86 666.33 201.86 648.33 148.86C630.33 95.8603 632.33 97.3603 625.229 89.3491C620.33 87.8603 594.726 87.3603 579.726 87.3603L581.229 35.3491ZM921.83 30.8604C1040.63 30.8604 1072.68 41.3603 1074.33 87.3603C1069.33 267.36 977.831 274.86 857.331 283.86C802.388 286.207 745.831 276.682 714.331 240.349C682.831 204.017 670.83 144.36 670.83 97.3603C670.83 50.3603 768.83 30.8604 921.83 30.8604Z" fill="#BDBDBD"/>
<path fill-rule="evenodd" clip-rule="evenodd" d="M581.828 35.3491C493.726 35.3491 472.726 23.6479 428.226 15.8604C388.226 8.86038 312.828 2.34909 284.828 2.34909C260.161 0.849094 185.339 0.274307 147.226 2.34914C82.7257 5.86038 5.22608 14.8604 1.22568 18.8604C0.225853 19.8599 2.7262 112.86 5.22588 116.36C14.7262 126.86 58.1033 130.71 60.7262 138.36C66.7262 155.86 85.2262 220.86 102.827 240.349C120.429 259.838 171.226 288.86 230.226 299.86C258.226 305.081 331.226 309.36 371.726 303.36C412.226 297.36 444.226 278.86 459.726 262.86C475.226 246.86 496.726 201.86 514.726 148.86C532.726 95.8603 530.726 97.3603 537.827 89.3491C542.726 87.8603 568.331 87.3603 583.331 87.3603L581.828 35.3491ZM241.226 30.8604C122.426 30.8604 90.3799 41.3603 88.7262 87.3603C93.7259 267.36 185.226 274.86 305.726 283.86C360.668 286.207 417.226 276.682 448.726 240.349C480.226 204.017 492.226 144.36 492.226 97.3603C492.226 50.3603 394.226 30.8604 241.226 30.8604Z" stroke="#BDBDBD"/>
<path fill-rule="evenodd" clip-rule="evenodd" d="M581.229 35.3491C669.331 35.3491 690.331 23.6479 734.831 15.8604C774.831 8.86038 850.229 2.34909 878.229 2.34909C902.895 0.849094 977.717 0.274307 1015.83 2.34914C1080.33 5.86038 1157.83 14.8604 1161.83 18.8604C1162.83 19.8599 1160.33 112.86 1157.83 116.36C1148.33 126.86 1104.95 130.71 1102.33 138.36C1096.33 155.86 1077.83 220.86 1060.23 240.349C1042.63 259.838 991.83 288.86 932.83 299.86C904.83 305.081 831.83 309.36 791.33 303.36C750.83 297.36 718.83 278.86 703.33 262.86C687.83 246.86 666.33 201.86 648.33 148.86C630.33 95.8603 632.33 97.3603 625.229 89.3491C620.33 87.8603 594.726 87.3603 579.726 87.3603L581.229 35.3491ZM921.83 30.8604C1040.63 30.8604 1072.68 41.3603 1074.33 87.3603C1069.33 267.36 977.831 274.86 857.331 283.86C802.388 286.207 745.831 276.682 714.331 240.349C682.831 204.017 670.83 144.36 670.83 97.3603C670.83 50.3603 768.83 30.8604 921.83 30.8604Z" stroke="#BDBDBD"/>
</svg>
