<svg width="49" height="48" viewBox="0 0 49 48" fill="none" xmlns="http://www.w3.org/2000/svg">
<path d="M42.4912 24C42.4912 33.9411 34.4323 42 24.4912 42C14.5501 42 6.49121 33.9411 6.49121 24C6.49121 14.0589 14.5501 6 24.4912 6C34.4323 6 42.4912 14.0589 42.4912 24Z" fill="#EDFF05"/>
<path d="M28.7363 28.3594V30.1875H20.0703V28.623L24.2275 24.1318C24.6611 23.6396 25.0039 23.2119 25.2559 22.8486C25.5078 22.4854 25.6865 22.1572 25.792 21.8643C25.9033 21.5654 25.959 21.2812 25.959 21.0117C25.959 20.6191 25.8887 20.2764 25.748 19.9834C25.6074 19.6846 25.4023 19.4531 25.1328 19.2891C24.8691 19.125 24.5439 19.043 24.1572 19.043C23.7295 19.043 23.3633 19.1426 23.0586 19.3418C22.7598 19.5352 22.5312 19.8047 22.373 20.1504C22.2207 20.4961 22.1445 20.8916 22.1445 21.3369H19.8154C19.8154 20.5811 19.9912 19.8926 20.3428 19.2715C20.6943 18.6445 21.1982 18.1436 21.8545 17.7686C22.5107 17.3936 23.29 17.2061 24.1924 17.2061C25.0713 17.2061 25.8154 17.3525 26.4248 17.6455C27.0342 17.9326 27.4971 18.3428 27.8135 18.876C28.1299 19.4092 28.2881 20.0449 28.2881 20.7832C28.2881 21.1934 28.2207 21.5977 28.0859 21.9961C27.9512 22.3945 27.7607 22.79 27.5146 23.1826C27.2744 23.5693 26.9873 23.9619 26.6533 24.3604C26.3193 24.7588 25.9473 25.166 25.5371 25.582L23.041 28.3594H28.7363Z" fill="white"/>
<path fill-rule="evenodd" clip-rule="evenodd" d="M29.5801 27.5156V31.0312H19.2266V28.2925L23.6012 23.5664C24.0192 23.0916 24.3369 22.6931 24.5625 22.3678C24.7886 22.0418 24.9255 21.7801 24.9981 21.5785L24.9997 21.5741L25.0013 21.5697C25.0838 21.3482 25.1152 21.1641 25.1152 21.0117C25.1152 20.7196 25.0631 20.5063 24.9874 20.3485L24.986 20.3456L24.9846 20.3427C24.911 20.1862 24.8155 20.0837 24.6941 20.0098L24.6906 20.0076L24.6871 20.0055C24.5865 19.9429 24.4249 19.8867 24.1572 19.8867C23.8642 19.8867 23.6652 19.9533 23.5203 20.048L23.5187 20.0491L23.517 20.0502C23.3636 20.1494 23.2385 20.289 23.1427 20.4961C23.0468 20.7163 22.9883 20.991 22.9883 21.3369V22.1807H18.9717V21.3369C18.9717 20.4449 19.1806 19.6123 19.6077 18.8573C20.0379 18.0906 20.6545 17.4825 21.4359 17.036C22.2423 16.5752 23.1717 16.3623 24.1924 16.3623C25.1601 16.3623 26.0357 16.523 26.7874 16.8836C27.5341 17.2361 28.1297 17.7555 28.5391 18.4454C28.9464 19.1318 29.1318 19.9225 29.1318 20.7832C29.1318 21.2876 29.0487 21.7832 28.8852 22.2664C28.7275 22.7327 28.5076 23.187 28.2305 23.6293C27.9667 24.0538 27.6556 24.4781 27.2999 24.9024C26.9535 25.3156 26.5705 25.735 26.1517 26.1604L24.9338 27.5156H29.5801ZM23.041 28.3594H28.7363V30.1875H20.0703V28.623L24.2275 24.1318C24.6611 23.6396 25.0039 23.2119 25.2559 22.8486C25.5078 22.4854 25.6865 22.1572 25.792 21.8643C25.9033 21.5654 25.959 21.2812 25.959 21.0117C25.959 20.6191 25.8887 20.2764 25.748 19.9834C25.6074 19.6846 25.4023 19.4531 25.1328 19.2891C24.8691 19.125 24.5439 19.043 24.1572 19.043C23.7295 19.043 23.3633 19.1426 23.0586 19.3418C22.7598 19.5352 22.5313 19.8047 22.373 20.1504C22.2207 20.4961 22.1445 20.8916 22.1445 21.3369H19.8154C19.8154 21.0457 19.8415 20.7644 19.8937 20.4932C19.977 20.0605 20.1267 19.6533 20.3428 19.2715C20.6943 18.6445 21.1982 18.1436 21.8545 17.7686C22.5107 17.3936 23.29 17.2061 24.1924 17.2061C25.0713 17.2061 25.8154 17.3525 26.4248 17.6455C27.0342 17.9326 27.4971 18.3428 27.8135 18.876C28.1299 19.4092 28.2881 20.0449 28.2881 20.7832C28.2881 21.1934 28.2207 21.5977 28.0859 21.9961C27.9512 22.3945 27.7607 22.79 27.5146 23.1826C27.2744 23.5693 26.9873 23.9619 26.6533 24.3604C26.3193 24.7588 25.9473 25.166 25.5371 25.582L23.041 28.3594Z" fill="black"/>
</svg>
