<svg width="48" height="48" viewBox="0 0 48 48" fill="none" xmlns="http://www.w3.org/2000/svg">
<path d="M48 24C48 37.2548 37.2548 48 24 48C10.7452 48 0 37.2548 0 24C0 10.7452 10.7452 0 24 0C37.2548 0 48 10.7452 48 24Z" fill="white"/>
<path d="M45.0938 24C45.0938 35.6498 35.6498 45.0938 24 45.0938C12.3502 45.0938 2.90625 35.6498 2.90625 24C2.90625 12.3502 12.3502 2.90625 24 2.90625C35.6498 2.90625 45.0938 12.3502 45.0938 24Z" fill="black"/>
<path fill-rule="evenodd" clip-rule="evenodd" d="M26.2031 2.90625H21.7969V21.7969H2.90625L2.90625 26.2031H21.7969V45.0938H26.2031V26.2031H45.0938V21.7969H26.2031V2.90625ZM24 26.2031C25.2168 26.2031 26.2031 25.2168 26.2031 24C26.2031 22.7832 25.2168 21.7969 24 21.7969C22.7832 21.7969 21.7969 22.7832 21.7969 24C21.7969 25.2168 22.7832 26.2031 24 26.2031Z" fill="white"/>
</svg>
