<svg width="49" height="48" viewBox="0 0 49 48" fill="none" xmlns="http://www.w3.org/2000/svg">
<path d="M42.4738 24C42.4738 33.9411 34.4149 42 24.4738 42C14.5326 42 6.47375 33.9411 6.47375 24C6.47375 14.0589 14.5326 6 24.4738 6C34.4149 6 42.4738 14.0589 42.4738 24Z" fill="#2823D5"/>
<path d="M28.0948 25.5205V27.3486H18.8751L18.7784 25.9424L24.2013 17.3906H26.0558L24.0519 20.792L21.1427 25.5205H28.0948ZM26.5743 17.3906V30.1875H24.2452V17.3906H26.5743Z" fill="white"/>
<path fill-rule="evenodd" clip-rule="evenodd" d="M28.9386 24.6768V28.1924H27.4181V31.0313H23.4015V28.1924H18.0874L17.9177 25.7242L23.4015 17.0764V16.5469H27.5321L27.4181 16.7405V24.6768H28.9386ZM26.5743 25.5205H28.0948V27.3486H26.5743V30.1875H24.2452V27.3486H18.8751L18.7784 25.9424L24.2013 17.3906H26.5743V25.5205ZM24.2452 25.5205H21.1427L24.0518 20.792L24.2452 20.4638V25.5205ZM23.4015 24.6768V23.4593L22.6524 24.6768H23.4015Z" fill="black"/>
</svg>
