<svg width="564" height="400" viewBox="0 0 564 400" fill="none" xmlns="http://www.w3.org/2000/svg">
<g filter="url(#filter0_d_1454_10005)">
<ellipse cx="84.1387" cy="302.026" rx="47.9677" ry="85.5037" transform="rotate(21.6881 84.1387 302.026)" fill="url(#paint0_radial_1454_10005)"/>
</g>
<g filter="url(#filter1_d_1454_10005)">
<ellipse cx="47.9677" cy="85.5037" rx="47.9677" ry="85.5037" transform="matrix(-0.929209 0.369554 0.369554 0.929209 492.112 204.849)" fill="#D9D9D9"/>
</g>
<g filter="url(#filter2_f_1454_10005)">
<path d="M507 311.611C499.492 310.121 495.751 299.989 493.485 295.969C486.979 284.424 479.626 265.789 462.452 239.736C447.665 217.304 403.22 200.974 399.885 195.046C390.875 179.033 420.908 135.087 418.905 122.425C416.903 109.763 349.331 57.2536 331.311 46.826C313.292 36.3985 213.185 33.7901 186.656 46.8246C160.128 59.8591 117.582 110.88 106.07 132.852C94.5575 154.825 135.101 179.033 135.101 195.046C135.101 211.06 104.068 225.212 99.0623 243.46C94.0569 261.708 72.808 304.534 68.029 310.12C64.5252 314.216 55.5156 320.92 51.0107 320.92C47.3401 321.417 41 319.58 41 315.707" stroke="black" stroke-opacity="0.2" stroke-width="25"/>
</g>
<path d="M41 315.71C41 319.581 47.3399 321.417 51.0104 320.921C55.5151 320.921 64.5244 314.221 68.028 310.128C72.8069 304.545 101.062 233.835 106.067 215.599C111.073 197.364 117.579 184.71 117.579 168.707C117.579 152.704 94.5556 144.517 106.067 122.559C117.579 100.602 138.601 35.8448 165.129 22.8192C191.656 9.79351 343.814 12.3989 361.833 22.8194C379.852 33.24 416.89 109.906 418.892 122.559C420.894 135.213 406.88 152.704 415.889 168.707C419.224 174.63 431.972 193.182 446.759 215.599C463.932 241.635 486.963 284.449 493.469 295.986C495.735 300.003 504.481 314.593 511.989 316.082C524.502 317.57 521.999 313.851 523 311.617" stroke="url(#paint1_linear_1454_10005)" stroke-width="25"/>
<ellipse cx="51.8223" cy="287.923" rx="21.2759" ry="37.8746" transform="rotate(21.8709 51.8223 287.923)" fill="#E065BC"/>
<ellipse cx="21.2759" cy="37.8746" rx="21.2759" ry="37.8746" transform="matrix(-0.928026 0.372516 0.372516 0.928026 517.091 244.849)" fill="#E065BC"/>
<ellipse cx="38.3664" cy="279.589" rx="23.3257" ry="46.0196" transform="rotate(21.1625 38.3664 279.589)" fill="#D9D9D9"/>
<ellipse cx="23.3257" cy="46.0196" rx="23.3257" ry="46.0196" transform="matrix(-0.932561 0.361014 0.361014 0.932561 530.05 228.252)" fill="#D9D9D9"/>
<ellipse cx="37.53" cy="280.146" rx="11.8083" ry="23.2969" transform="rotate(21.1542 37.53 280.146)" fill="#E065BC"/>
<ellipse cx="11.8083" cy="23.2969" rx="11.8083" ry="23.2969" transform="matrix(-0.932612 0.36088 0.36088 0.932612 528.353 254.157)" fill="#E065BC"/>
<defs>
<filter id="filter0_d_1454_10005" x="25.498" y="220.604" width="117.281" height="170.844" filterUnits="userSpaceOnUse" color-interpolation-filters="sRGB">
<feFlood flood-opacity="0" result="BackgroundImageFix"/>
<feColorMatrix in="SourceAlpha" type="matrix" values="0 0 0 0 0 0 0 0 0 0 0 0 0 0 0 0 0 0 127 0" result="hardAlpha"/>
<feOffset dy="4"/>
<feGaussianBlur stdDeviation="2"/>
<feComposite in2="hardAlpha" operator="out"/>
<feColorMatrix type="matrix" values="0 0 0 0 0 0 0 0 0 0 0 0 0 0 0 0 0 0 0.25 0"/>
<feBlend mode="normal" in2="BackgroundImageFix" result="effect1_dropShadow_1454_10005"/>
<feBlend mode="normal" in="SourceGraphic" in2="effect1_dropShadow_1454_10005" result="shape"/>
</filter>
<filter id="filter1_d_1454_10005" x="420.498" y="220.604" width="117.281" height="170.844" filterUnits="userSpaceOnUse" color-interpolation-filters="sRGB">
<feFlood flood-opacity="0" result="BackgroundImageFix"/>
<feColorMatrix in="SourceAlpha" type="matrix" values="0 0 0 0 0 0 0 0 0 0 0 0 0 0 0 0 0 0 127 0" result="hardAlpha"/>
<feOffset dy="4"/>
<feGaussianBlur stdDeviation="2"/>
<feComposite in2="hardAlpha" operator="out"/>
<feColorMatrix type="matrix" values="0 0 0 0 0 0 0 0 0 0 0 0 0 0 0 0 0 0 0.25 0"/>
<feBlend mode="normal" in2="BackgroundImageFix" result="effect1_dropShadow_1454_10005"/>
<feBlend mode="normal" in="SourceGraphic" in2="effect1_dropShadow_1454_10005" result="shape"/>
</filter>
<filter id="filter2_f_1454_10005" x="3.5" y="0.5" width="531.666" height="358" filterUnits="userSpaceOnUse" color-interpolation-filters="sRGB">
<feFlood flood-opacity="0" result="BackgroundImageFix"/>
<feBlend mode="normal" in="SourceGraphic" in2="BackgroundImageFix" result="shape"/>
<feGaussianBlur stdDeviation="12.5" result="effect1_foregroundBlur_1454_10005"/>
</filter>
<radialGradient id="paint0_radial_1454_10005" cx="0" cy="0" r="1" gradientUnits="userSpaceOnUse" gradientTransform="translate(84.1387 302.026) rotate(90) scale(85.5037 47.9677)">
<stop stop-color="#D9D9D9"/>
<stop offset="1" stop-color="#D9D9D9"/>
</radialGradient>
<linearGradient id="paint1_linear_1454_10005" x1="273.992" y1="14" x2="273.992" y2="321" gradientUnits="userSpaceOnUse">
<stop stop-color="#D9D9D9"/>
<stop offset="0.135417" stop-color="#979797"/>
<stop offset="0.479167" stop-color="#D9D9D9"/>
<stop offset="0.5625" stop-color="#979797"/>
<stop offset="0.760417" stop-color="#D9D9D9"/>
<stop offset="1" stop-color="#8D8D8D"/>
</linearGradient>
</defs>
</svg>
