<svg width="30" height="30" viewBox="0 0 30 30" fill="none" xmlns="http://www.w3.org/2000/svg">
<circle cx="15" cy="15" r="15" fill="#808080"/>
<path d="M13.75 22.5H16.25V20H13.75V22.5ZM15 2.5C13.3585 2.5 11.733 2.82332 10.2165 3.45151C8.69989 4.07969 7.3219 5.00043 6.16117 6.16117C3.81696 8.50537 2.5 11.6848 2.5 15C2.5 18.3152 3.81696 21.4946 6.16117 23.8388C7.3219 24.9996 8.69989 25.9203 10.2165 26.5485C11.733 27.1767 13.3585 27.5 15 27.5C18.3152 27.5 21.4946 26.183 23.8388 23.8388C26.183 21.4946 27.5 18.3152 27.5 15C27.5 13.3585 27.1767 11.733 26.5485 10.2165C25.9203 8.69989 24.9996 7.3219 23.8388 6.16117C22.6781 5.00043 21.3001 4.07969 19.7835 3.45151C18.267 2.82332 16.6415 2.5 15 2.5ZM15 25C9.4875 25 5 20.5125 5 15C5 9.4875 9.4875 5 15 5C20.5125 5 25 9.4875 25 15C25 20.5125 20.5125 25 15 25ZM15 7.5C13.6739 7.5 12.4021 8.02678 11.4645 8.96447C10.5268 9.90215 10 11.1739 10 12.5H12.5C12.5 11.837 12.7634 11.2011 13.2322 10.7322C13.7011 10.2634 14.337 10 15 10C15.663 10 16.2989 10.2634 16.7678 10.7322C17.2366 11.2011 17.5 11.837 17.5 12.5C17.5 15 13.75 14.6875 13.75 18.75H16.25C16.25 15.9375 20 15.625 20 12.5C20 11.1739 19.4732 9.90215 18.5355 8.96447C17.5979 8.02678 16.3261 7.5 15 7.5Z" fill="black"/>
</svg>
