<svg width="49" height="48" viewBox="0 0 49 48" fill="none" xmlns="http://www.w3.org/2000/svg">
<path d="M42.9824 24C42.9824 33.9411 34.9235 42 24.9824 42C15.0413 42 6.98242 33.9411 6.98242 24C6.98242 14.0589 15.0413 6 24.9824 6C34.9235 6 42.9824 14.0589 42.9824 24Z" fill="black"/>
<path d="M23.1016 22.7607H24.4111C24.874 22.7607 25.2549 22.6816 25.5537 22.5234C25.8584 22.3594 26.084 22.1367 26.2305 21.8555C26.3828 21.5684 26.459 21.2373 26.459 20.8623C26.459 20.4932 26.3916 20.1738 26.2568 19.9043C26.1221 19.6289 25.917 19.418 25.6416 19.2715C25.3721 19.1191 25.0264 19.043 24.6045 19.043C24.2646 19.043 23.9512 19.1104 23.6641 19.2451C23.3828 19.3799 23.1572 19.5732 22.9873 19.8252C22.8232 20.0713 22.7412 20.3672 22.7412 20.7129H20.4121C20.4121 20.0215 20.5938 19.415 20.957 18.8936C21.3262 18.3662 21.8242 17.9531 22.4512 17.6543C23.0781 17.3555 23.7783 17.2061 24.5518 17.2061C25.3955 17.2061 26.1338 17.3467 26.7666 17.6279C27.4053 17.9033 27.9004 18.3105 28.252 18.8496C28.6094 19.3887 28.7881 20.0566 28.7881 20.8535C28.7881 21.2344 28.6973 21.6152 28.5156 21.9961C28.3398 22.3711 28.0791 22.7109 27.7334 23.0156C27.3936 23.3145 26.9746 23.5576 26.4766 23.7451C25.9844 23.9268 25.4189 24.0176 24.7803 24.0176H23.1016V22.7607ZM23.1016 24.5537V23.3145H24.7803C25.501 23.3145 26.125 23.3994 26.6523 23.5693C27.1855 23.7334 27.625 23.9678 27.9707 24.2725C28.3164 24.5713 28.5713 24.9199 28.7354 25.3184C28.9053 25.7168 28.9902 26.1445 28.9902 26.6016C28.9902 27.1992 28.8789 27.7324 28.6562 28.2012C28.4336 28.6641 28.1201 29.0566 27.7158 29.3789C27.3174 29.7012 26.8486 29.9473 26.3096 30.1172C25.7705 30.2812 25.1875 30.3633 24.5605 30.3633C24.0156 30.3633 23.4854 30.29 22.9697 30.1436C22.46 29.9912 22 29.7656 21.5898 29.4668C21.1797 29.1621 20.8545 28.7812 20.6143 28.3242C20.374 27.8613 20.2539 27.3252 20.2539 26.7158H22.583C22.583 27.0674 22.668 27.3809 22.8379 27.6562C23.0137 27.9316 23.2539 28.1484 23.5586 28.3066C23.8691 28.459 24.2178 28.5352 24.6045 28.5352C25.0322 28.5352 25.3984 28.459 25.7031 28.3066C26.0137 28.1484 26.251 27.9258 26.415 27.6387C26.5791 27.3457 26.6611 26.9971 26.6611 26.5928C26.6611 26.1123 26.5703 25.7227 26.3887 25.4238C26.207 25.125 25.9463 24.9053 25.6064 24.7646C25.2725 24.624 24.874 24.5537 24.4111 24.5537H23.1016Z" fill="white"/>
<path fill-rule="evenodd" clip-rule="evenodd" d="M22.2578 21.917H24.4111C24.7825 21.917 25.0155 21.853 25.1565 21.779C25.3248 21.6878 25.4212 21.5827 25.4821 21.4657L25.4836 21.4628L25.4851 21.46C25.5635 21.3122 25.6152 21.1207 25.6152 20.8623C25.6152 20.5952 25.5666 20.4106 25.5022 20.2816L25.5006 20.2784L25.499 20.2752C25.4438 20.1624 25.3667 20.081 25.2454 20.0164L25.2358 20.0113L25.2264 20.006C25.1213 19.9466 24.9314 19.8867 24.6045 19.8867C24.3809 19.8867 24.192 19.93 24.0257 20.0075C23.8784 20.0786 23.7712 20.1726 23.6882 20.2949C23.6318 20.3803 23.585 20.5064 23.585 20.7129V21.5566H19.5684V20.7129C19.5684 19.8649 19.7941 19.0868 20.2647 18.4113L20.2658 18.4097C20.7251 17.7536 21.3403 17.2491 22.0881 16.8926C22.8408 16.5339 23.6671 16.3623 24.5518 16.3623C25.4866 16.3623 26.3445 16.5178 27.105 16.855C27.8802 17.1902 28.5083 17.6993 28.957 18.3861C29.4241 19.0919 29.6318 19.9307 29.6318 20.8535C29.6318 21.3721 29.5075 21.8755 29.2784 22.3567C29.0704 22.7996 28.7767 23.1935 28.4105 23.5398C28.4495 23.5713 28.4879 23.6037 28.5255 23.6368C28.9621 24.0149 29.2966 24.4676 29.5135 24.9922C29.7291 25.4996 29.834 26.0389 29.834 26.6016C29.834 27.3055 29.7024 27.9654 29.4184 28.5632L29.4175 28.5651L29.4166 28.5669C29.139 29.1441 28.7459 29.6363 28.2441 30.0368C27.756 30.4311 27.1917 30.7238 26.5632 30.9219L26.5592 30.9232L26.5552 30.9244C25.9281 31.1152 25.2615 31.207 24.5605 31.207C23.939 31.207 23.331 31.1233 22.7391 30.9552L22.7336 30.9536L22.7281 30.952C22.1312 30.7736 21.5841 30.5066 21.093 30.1487L21.0898 30.1464L21.0867 30.1441C20.5739 29.7632 20.1659 29.2846 19.8674 28.7168L19.8664 28.7148L19.8654 28.7129C19.5531 28.1112 19.4102 27.4377 19.4102 26.7158V25.8721H23.4268V26.7158C23.4268 26.9221 23.4739 27.0781 23.5527 27.2078C23.6428 27.3471 23.7655 27.4617 23.9388 27.5533C24.119 27.64 24.3356 27.6914 24.6045 27.6914C24.932 27.6914 25.1617 27.6334 25.323 27.5534C25.4924 27.4665 25.6032 27.3575 25.6806 27.2232C25.7602 27.0798 25.8174 26.88 25.8174 26.5928C25.8174 26.2113 25.7444 25.9883 25.6677 25.8621C25.5842 25.7247 25.4671 25.6201 25.2838 25.5443L25.2814 25.5433L25.279 25.5423C25.0731 25.4556 24.7915 25.3975 24.4111 25.3975H22.2578V21.917ZM25.5537 22.5234C25.3385 22.6374 25.0806 22.7103 24.7803 22.7422C24.6636 22.7546 24.5406 22.7607 24.4111 22.7607H23.1016V24.5537H24.4111C24.5391 24.5537 24.6622 24.5591 24.7803 24.5698C25.0894 24.598 25.3648 24.6629 25.6064 24.7646C25.6348 24.7764 25.6626 24.7887 25.6899 24.8015C25.9893 24.9425 26.2222 25.1499 26.3887 25.4238C26.5703 25.7227 26.6611 26.1123 26.6611 26.5928C26.6611 26.9971 26.5791 27.3457 26.415 27.6387C26.251 27.9258 26.0137 28.1484 25.7031 28.3066C25.3984 28.459 25.0322 28.5352 24.6045 28.5352C24.2178 28.5352 23.8691 28.459 23.5586 28.3066C23.2539 28.1484 23.0137 27.9316 22.8379 27.6562C22.668 27.3809 22.583 27.0674 22.583 26.7158H20.2539C20.2539 27.0147 20.2828 27.2959 20.3406 27.5596C20.4006 27.8335 20.4918 28.0884 20.6143 28.3242C20.8545 28.7812 21.1797 29.1621 21.5898 29.4668C22 29.7656 22.46 29.9912 22.9697 30.1436C23.4854 30.29 24.0156 30.3633 24.5605 30.3633C25.1875 30.3633 25.7705 30.2812 26.3096 30.1172C26.8486 29.9473 27.3174 29.7012 27.7158 29.3789C28.1201 29.0566 28.4336 28.6641 28.6562 28.2012C28.8789 27.7324 28.9902 27.1992 28.9902 26.6016C28.9902 26.1445 28.9053 25.7168 28.7354 25.3184C28.5713 24.9199 28.3164 24.5713 27.9707 24.2725C27.8913 24.2025 27.807 24.1362 27.7177 24.0737C27.4526 23.8879 27.1437 23.7348 26.7913 23.6144C27.1261 23.4615 27.4196 23.2795 27.6718 23.0684C27.6926 23.051 27.7132 23.0334 27.7334 23.0156C28.0791 22.7109 28.3398 22.3711 28.5156 21.9961C28.6973 21.6152 28.7881 21.2344 28.7881 20.8535C28.7881 20.0566 28.6094 19.3887 28.252 18.8496C27.9004 18.3105 27.4053 17.9033 26.7666 17.6279C26.1338 17.3467 25.3955 17.2061 24.5518 17.2061C23.7783 17.2061 23.0781 17.3555 22.4512 17.6543C21.8242 17.9531 21.3262 18.3662 20.957 18.8936C20.7498 19.1911 20.6016 19.5163 20.5126 19.8691C20.4456 20.1347 20.4121 20.416 20.4121 20.7129H22.7412C22.7412 20.3672 22.8232 20.0713 22.9873 19.8252C23.1572 19.5732 23.3828 19.3799 23.6641 19.2451C23.9512 19.1104 24.2646 19.043 24.6045 19.043C25.0264 19.043 25.3721 19.1191 25.6416 19.2715C25.917 19.418 26.1221 19.6289 26.2568 19.9043C26.3916 20.1738 26.459 20.4932 26.459 20.8623C26.459 21.2373 26.3828 21.5684 26.2305 21.8555C26.0891 22.1269 25.874 22.3438 25.5853 22.5061C25.5749 22.5119 25.5643 22.5177 25.5537 22.5234Z" fill="black"/>
</svg>
