<svg width="77" height="53" viewBox="0 0 77 53" fill="none" xmlns="http://www.w3.org/2000/svg">
<path d="M38.0503 15.6117C40.8026 15.6117 43.4421 16.7082 45.3882 18.66C47.3343 20.6118 48.4277 23.2591 48.4277 26.0194C48.4277 28.7797 47.3343 31.427 45.3882 33.3788C43.4421 35.3307 40.8026 36.4272 38.0503 36.4272C35.2981 36.4272 32.6585 35.3307 30.7124 33.3788C28.7663 31.427 27.673 28.7797 27.673 26.0194C27.673 23.2591 28.7663 20.6118 30.7124 18.66C32.6585 16.7082 35.2981 15.6117 38.0503 15.6117ZM38.0503 0C55.3459 0 70.1163 10.7894 76.1006 26.0194C70.1163 41.2495 55.3459 52.0388 38.0503 52.0388C20.7547 52.0388 5.98428 41.2495 0 26.0194C5.98428 10.7894 20.7547 0 38.0503 0ZM7.54088 26.0194C13.2484 37.6761 25.044 45.1003 38.0503 45.1003C51.0566 45.1003 62.8522 37.6761 68.5597 26.0194C62.8522 14.3627 51.0566 6.93851 38.0503 6.93851C25.044 6.93851 13.2484 14.3627 7.54088 26.0194Z" fill="#F27750"/>
</svg>
