<svg width="564" height="504" viewBox="0 0 564 504" fill="none" xmlns="http://www.w3.org/2000/svg">
<g filter="url(#filter0_d_1454_10008)">
<ellipse cx="84.1387" cy="406.026" rx="47.9677" ry="85.5037" transform="rotate(21.6881 84.1387 406.026)" fill="url(#paint0_radial_1454_10008)"/>
</g>
<g filter="url(#filter1_d_1454_10008)">
<ellipse cx="47.9677" cy="85.5037" rx="47.9677" ry="85.5037" transform="matrix(-0.929209 0.369554 0.369554 0.929209 492.112 308.849)" fill="#D9D9D9"/>
</g>
<g filter="url(#filter2_f_1454_10008)">
<path d="M506.968 412.847C499.468 410.847 495.731 397.244 493.468 391.847C486.968 376.347 479.623 351.327 462.468 316.349C447.697 286.231 403.299 264.306 399.968 256.349C390.968 234.849 420.968 175.847 418.968 158.847C416.968 141.847 349.468 71.3488 331.468 57.3488C313.468 43.3488 213.468 39.8469 186.968 57.3469C160.468 74.8469 117.968 143.347 106.468 172.847C94.9678 202.347 135.468 234.849 135.468 256.349C135.468 277.849 104.468 296.849 99.4678 321.349C94.4678 345.849 73.2417 403.346 68.4678 410.846C64.9678 416.346 55.9678 425.346 51.4678 425.346C47.8011 426.013 41.4678 423.546 41.4678 418.346" stroke="black" stroke-opacity="0.2" stroke-width="25"/>
</g>
<path d="M41.4678 418.349C41.4678 423.549 47.8011 426.015 51.4678 425.349C55.9678 425.349 64.9678 416.348 68.4678 410.849C73.2417 403.348 101.468 308.349 106.468 283.849C111.468 259.349 117.968 242.349 117.968 220.849C117.968 199.349 94.9678 188.349 106.468 158.849C117.968 129.349 138.968 42.3486 165.468 24.8486C191.968 7.34856 343.968 10.8489 361.968 24.8489C379.968 38.8489 416.968 141.849 418.968 158.849C420.968 175.849 406.968 199.349 415.968 220.849C419.299 228.807 432.034 253.732 446.805 283.849C463.961 318.828 486.968 376.349 493.468 391.849C495.731 397.246 504.468 416.848 511.968 418.849C524.468 420.848 521.968 415.85 522.968 412.849" stroke="url(#paint1_linear_1454_10008)" stroke-width="25"/>
<ellipse cx="51.8223" cy="391.923" rx="21.2759" ry="37.8746" transform="rotate(21.8709 51.8223 391.923)" fill="black"/>
<ellipse cx="21.2759" cy="37.8746" rx="21.2759" ry="37.8746" transform="matrix(-0.928026 0.372516 0.372516 0.928026 517.091 348.849)" fill="black"/>
<ellipse cx="38.3664" cy="383.589" rx="23.3257" ry="46.0196" transform="rotate(21.1625 38.3664 383.589)" fill="#D9D9D9"/>
<ellipse cx="23.3257" cy="46.0196" rx="23.3257" ry="46.0196" transform="matrix(-0.932561 0.361014 0.361014 0.932561 530.05 332.252)" fill="#D9D9D9"/>
<ellipse cx="37.53" cy="384.146" rx="11.8083" ry="23.2969" transform="rotate(21.1542 37.53 384.146)" fill="black"/>
<ellipse cx="11.8083" cy="23.2969" rx="11.8083" ry="23.2969" transform="matrix(-0.932612 0.36088 0.36088 0.932612 528.353 358.157)" fill="black"/>
<defs>
<filter id="filter0_d_1454_10008" x="25.498" y="324.604" width="117.281" height="170.844" filterUnits="userSpaceOnUse" color-interpolation-filters="sRGB">
<feFlood flood-opacity="0" result="BackgroundImageFix"/>
<feColorMatrix in="SourceAlpha" type="matrix" values="0 0 0 0 0 0 0 0 0 0 0 0 0 0 0 0 0 0 127 0" result="hardAlpha"/>
<feOffset dy="4"/>
<feGaussianBlur stdDeviation="2"/>
<feComposite in2="hardAlpha" operator="out"/>
<feColorMatrix type="matrix" values="0 0 0 0 0 0 0 0 0 0 0 0 0 0 0 0 0 0 0.25 0"/>
<feBlend mode="normal" in2="BackgroundImageFix" result="effect1_dropShadow_1454_10008"/>
<feBlend mode="normal" in="SourceGraphic" in2="effect1_dropShadow_1454_10008" result="shape"/>
</filter>
<filter id="filter1_d_1454_10008" x="420.498" y="324.604" width="117.281" height="170.844" filterUnits="userSpaceOnUse" color-interpolation-filters="sRGB">
<feFlood flood-opacity="0" result="BackgroundImageFix"/>
<feColorMatrix in="SourceAlpha" type="matrix" values="0 0 0 0 0 0 0 0 0 0 0 0 0 0 0 0 0 0 127 0" result="hardAlpha"/>
<feOffset dy="4"/>
<feGaussianBlur stdDeviation="2"/>
<feComposite in2="hardAlpha" operator="out"/>
<feColorMatrix type="matrix" values="0 0 0 0 0 0 0 0 0 0 0 0 0 0 0 0 0 0 0.25 0"/>
<feBlend mode="normal" in2="BackgroundImageFix" result="effect1_dropShadow_1454_10008"/>
<feBlend mode="normal" in="SourceGraphic" in2="effect1_dropShadow_1454_10008" result="shape"/>
</filter>
<filter id="filter2_f_1454_10008" x="3.96777" y="7.99902" width="532.633" height="454.955" filterUnits="userSpaceOnUse" color-interpolation-filters="sRGB">
<feFlood flood-opacity="0" result="BackgroundImageFix"/>
<feBlend mode="normal" in="SourceGraphic" in2="BackgroundImageFix" result="shape"/>
<feGaussianBlur stdDeviation="12.5" result="effect1_foregroundBlur_1454_10008"/>
</filter>
<radialGradient id="paint0_radial_1454_10008" cx="0" cy="0" r="1" gradientUnits="userSpaceOnUse" gradientTransform="translate(84.1387 406.026) rotate(90) scale(85.5037 47.9677)">
<stop stop-color="#D9D9D9"/>
<stop offset="1" stop-color="#D9D9D9"/>
</radialGradient>
<linearGradient id="paint1_linear_1454_10008" x1="274.218" y1="13" x2="274.218" y2="425.455" gradientUnits="userSpaceOnUse">
<stop stop-color="#D9D9D9"/>
<stop offset="0.135417" stop-color="#979797"/>
<stop offset="0.479167" stop-color="#D9D9D9"/>
<stop offset="0.5625" stop-color="#979797"/>
<stop offset="0.760417" stop-color="#D9D9D9"/>
<stop offset="1" stop-color="#8D8D8D"/>
</linearGradient>
</defs>
</svg>
