<svg width="50" height="50" viewBox="0 0 50 50" fill="none" xmlns="http://www.w3.org/2000/svg">
<path d="M25 50C11.1929 50 4.6277e-07 38.8071 2.98122e-07 25C1.33474e-07 11.1929 11.1929 1.35714e-06 25 1.19249e-06C38.8071 1.02784e-06 50 11.1929 50 25C50 38.8071 38.8071 50 25 50Z" fill="black"/>
<path d="M17.1519 35.5003V13.6821H25.3337C27.0098 13.6821 28.4161 13.9733 29.5524 14.5557C30.6959 15.1381 31.5588 15.9549 32.1412 17.006C32.7307 18.05 33.0254 19.2681 33.0254 20.6601C33.0254 22.0593 32.7271 23.2737 32.1305 24.3036C31.5411 25.3263 30.671 26.1182 29.5205 26.6793C28.3699 27.2333 26.9565 27.5103 25.2804 27.5103H19.453V24.229H24.7477C25.7278 24.229 26.5304 24.0941 27.1554 23.8242C27.7804 23.5472 28.2421 23.1459 28.5403 22.6203C28.8457 22.0877 28.9984 21.4343 28.9984 20.6601C28.9984 19.886 28.8457 19.2255 28.5403 18.6786C28.235 18.1246 27.7698 17.7056 27.1448 17.4215C26.5198 17.1303 25.7136 16.9847 24.7264 16.9847H21.1043V35.5003H17.1519ZM28.4232 25.6139L33.8244 35.5003H29.4139L24.1085 25.6139H28.4232Z" fill="white"/>
</svg>
