<svg width="48" height="48" viewBox="0 0 48 48" fill="none" xmlns="http://www.w3.org/2000/svg">
<path d="M42 24C42 33.9411 33.9411 42 24 42C14.0589 42 6 33.9411 6 24C6 14.0589 14.0589 6 24 6C33.9411 6 42 14.0589 42 24Z" fill="#F58DBA"/>
<path d="M25.2744 17.3555V30.1875H22.9453V20.0713L19.8604 21.0908V19.21L25.0107 17.3555H25.2744Z" fill="white"/>
<path fill-rule="evenodd" clip-rule="evenodd" d="M26.1182 16.5117V31.0312H22.1016V21.2388L19.0166 22.2583V18.617L24.8635 16.5117H26.1182ZM22.9453 20.0713V30.1875H25.2744V17.3555H25.0107L19.8604 19.21V21.0908L22.9453 20.0713Z" fill="black"/>
</svg>
